<?xml version="1.0"?><svg width="393.235" height="491.029" xmlns="http://www.w3.org/2000/svg">
 <title>C3 Healthcare Logo</title>

 <g>
  <title>Layer 1</title>
  <path d="m195.546997,304.52832l2.141998,0l11,-263.253971l-24.141998,0l11,263.253971z" stroke="#FFFFFF" stroke-linejoin="bevel" id="svg_1" fill="#49a8c0"/>
  <g id="svg_2">
   <path d="m170.192001,99.68c-21.710007,2.739998 -41.389999,-22.669998 -31.369995,-28.639999c0.970001,-2.25 0.689987,-3.419998 -1.630005,-2.989998c-23.599998,3.25 -38.520004,-16.360004 -35.919998,-36.810003c0.169998,-1.369999 -0.771004,-1.65 -1.530006,-1.699999c-0.879997,-0.060001 -1.579994,0.99 -2.019997,1.699999c-7.330002,11.820002 -19.75,19.01 -31.080002,26.590002c-13,8.709999 -33.119999,19.879997 -41.810999,21.379997c-7.68,1.32 -19.75,2.730003 -24.129999,-3.529999c-0.899,-1.5 -0.01,-1.660004 1.07,-2.25c14.399999,-7.230003 15.91,-5.629997 42.299999,-22.330002c23.160004,-14.66 45.510002,-33.919998 67,-44.799998c9.450005,-4.78 38.75,-9.15 48.970001,4.9c17.410004,23.94 -7.029007,34.37 -7.729004,38.599999c-1.349991,8.170002 6.689011,23.350002 27.600006,17.810001l2.75,-0.870003l0.649994,29.130005l-0.940002,0.519997c-4.079987,2.009003 -8.188995,3.040001 -12.179993,3.290001z" stroke="#FFFFFF" stroke-linejoin="bevel" id="svg_3" fill="#64b451"/>
   <path d="m92.031998,44.508999c0.700005,-0.789997 3.82,-2.289997 4,-1c0.480003,3.400002 2.290001,8.030003 4.290001,11.790001c0.68,1.27 -0.809998,2.889999 -1.75,4c-13.399002,11.320004 -29.209999,22.09 -42.869999,28.149998c-4.389999,1.529999 -9.259998,2.389999 -13.950001,2.010002c-3.159,-0.25 -7.549999,-0.07 -9.069,-2.849998c-0.350998,-0.650002 0.149002,-1.529999 0.580002,-2.120003c21.209999,-8.749001 37.469002,-21.058998 58.768997,-39.98z" stroke="#FFFFFF" stroke-linejoin="bevel" id="svg_4" fill="#64b451"/>
   <path d="m100.571999,62.27c0.620003,-0.66 1.700005,-1.439999 2.93,-0.93c2.881004,3.350002 4.471001,4.939999 7.850998,6.429996c1.080002,0.470001 2.450005,1.960007 0.649002,3.5c-18.919998,16.040001 -33.25,29.690002 -52.028999,24.550003c-0.600998,-0.159996 -0.459999,-2.050003 0.069,-2.360001c11.140999,-6.419998 23.959999,-13.481003 40.529999,-31.189999z" stroke="#FFFFFF" stroke-linejoin="bevel" id="svg_5" fill="#64b451"/>
   <path d="m115.952003,71.989998c2.949997,-1.989998 0.489998,0.450005 13.299995,1.400002c1.660004,0.120003 -0.188995,3.639999 -0.778992,5.220001c-5.860008,8.529999 -15.860008,16.349998 -24.290009,20.419998c-4.080002,1.980003 -9.580002,3.010002 -13.640999,0.93c-0.399002,-0.199997 -0.488998,-0.919998 -0.720001,-1.139999c-0.830002,-0.839996 5.470001,-5.43 11.290001,-10.709999c5.521004,-5.021004 13.201004,-13.441002 14.840004,-16.120003z" stroke="#FFFFFF" stroke-linejoin="bevel" id="svg_6" fill="#64b451"/>
   <path d="m223.042999,99.68c21.710007,2.739998 41.390015,-22.669998 31.369995,-28.639999c-0.970993,-2.25 -0.689987,-3.419998 1.630005,-2.989998c23.600006,3.25 38.519989,-16.360004 35.920013,-36.810003c-0.170013,-1.369999 0.769989,-1.65 1.528992,-1.699999c0.880981,-0.060001 1.579987,0.99 2.020996,1.699999c7.329987,11.820002 19.75,19.01 31.079987,26.590002c13,8.709999 33.120026,19.879997 41.810028,21.379997c7.681,1.32 19.75,2.730003 24.129974,-3.529999c0.900024,-1.5 0.011017,-1.660004 -1.069,-2.25c-14.399994,-7.230003 -15.910004,-5.629997 -42.299988,-22.330002c-23.160004,-14.66 -45.510986,-33.919998 -67,-44.799998c-9.450012,-4.78 -38.75,-9.15 -48.971008,4.9c-17.409988,23.94 7.030014,34.37 7.730011,38.599999c1.349991,8.170002 -6.690002,23.350002 -27.600998,17.810001l-2.75,-0.870003l-0.649002,29.130005l0.938995,0.519997c4.080002,2.009003 8.190994,3.040001 12.181,3.290001z" stroke="#FFFFFF" stroke-linejoin="bevel" id="svg_7" fill="#64b451"/>
   <path d="m301.203003,44.508999c-0.700012,-0.789997 -3.820007,-2.289997 -4,-1c-0.480011,3.400002 -2.290009,8.030003 -4.290009,11.790001c-0.681,1.27 0.809998,2.889999 1.75,4c13.399017,11.320004 29.209991,22.09 42.869019,28.149998c4.390991,1.529999 9.260986,2.389999 13.949982,2.010002c3.160004,-0.25 7.550018,-0.07 9.070007,-2.849998c0.350006,-0.650002 -0.149994,-1.529999 -0.580017,-2.120003c-21.208984,-8.749001 -37.468994,-21.058998 -58.768982,-39.98z" stroke="#FFFFFF" stroke-linejoin="bevel" id="svg_8" fill="#64b451"/>
   <path d="m292.662994,62.27c-0.619995,-0.66 -1.700012,-1.439999 -2.931,-0.93c-2.880005,3.350002 -4.470001,4.939999 -7.850006,6.429996c-1.079987,0.470001 -2.450012,1.960007 -0.649994,3.5c18.919983,16.040001 33.25,29.690002 52.029999,24.550003c0.600006,-0.159996 0.459991,-2.050003 -0.070007,-2.360001c-11.138977,-6.419998 -23.959991,-13.481003 -40.528992,-31.189999z" stroke="#FFFFFF" stroke-linejoin="bevel" id="svg_9" fill="#64b451"/>
   <path d="m277.282013,71.989998c-2.949005,-1.989998 -0.489014,0.450005 -13.299988,1.400002c-1.660004,0.120003 0.189972,3.639999 0.779999,5.220001c5.859985,8.529999 15.859985,16.349998 24.289978,20.419998c4.080017,1.980003 9.580017,3.010002 13.640015,0.93c0.399994,-0.199997 0.48999,-0.919998 0.721008,-1.139999c0.828979,-0.839996 -5.471008,-5.43 -11.290009,-10.709999c-5.52002,-5.021004 -13.200012,-13.441002 -14.841003,-16.120003z" stroke="#FFFFFF" stroke-linejoin="bevel" id="svg_10" fill="#64b451"/>
  </g>
  <path d="m196.612,0.5c10.160004,0 18.410004,8.25 18.410004,18.41s-8.25,18.400002 -18.410004,18.400002s-18.399002,-8.240002 -18.399002,-18.400002s8.238998,-18.41 18.399002,-18.41z" stroke="#FFFFFF" id="svg_11" fill="#49a8c0"/>
  <path d="m201.501999,11.16c-0.880005,-1.48 0.369995,-4.14 3.130005,-3.25c10.660004,4.84 5.399994,23.469999 -6.380005,22.950001c-1.809998,0.049999 -2.389999,-1.710001 -1.039993,-2.66c5.149994,-3.5 9.479996,-8.640001 4.289993,-17.040001z" fill="#FFFFFF" stroke="#ffffff" stroke-linejoin="bevel" stroke-width="0.5" id="svg_12"/>
  <g id="svg_19">
   <path d="m260.687988,124.716164c1.188995,-7.700912 -9.470001,-16.517723 -26.459991,-17.372093c-5.910004,-0.296417 -14.790009,-0.319656 -19.930008,2.3713c-4.869995,2.551476 7.858994,7.881081 14.540009,8.264687c8.94899,0.511444 13.658997,-1.987717 15.259995,-3.44072c0.550003,-0.488213 1.539993,-0.290596 1.889999,0.209229c4.059998,17.617355 -26.826996,21.633453 -49.365005,25.340942c4.667999,0.767761 8.977997,1.522736 12.544998,2.382339c6.315002,1.523346 11.710007,3.163467 16.313004,4.884979c17.681015,-5.311584 33.649017,-12.47023 35.207001,-22.640663z" stroke="#FFFFFF" stroke-linejoin="bevel" id="svg_13" fill="#64b451"/>
   <path d="m177.638,278.995911c-10.690002,6.340881 -9.850006,15.762146 1.800003,22.504089c-1.800003,-6.933716 -6.210007,-12.152924 7.179993,-18.511261c3.354004,-1.594238 6.630997,-2.747894 10.003006,-3.848114c-3.779999,-1.233887 -7.684998,-2.4021 -11.957001,-4.050385c-2.699005,1.46344 -5.143997,2.790924 -7.026001,3.90567z" stroke="#FFFFFF" stroke-linejoin="bevel" id="svg_14" fill="#49a8c0"/>
   <path d="m218.287994,195.145493c-6.986008,-2.581711 -14.610001,-4.863495 -21.666,-7.159225c-4.123001,-1.341995 -8.052002,-2.688644 -11.544006,-4.104462c-19.949997,-8.084503 -20.110001,-21.853134 8.970001,-28.595062c0.839005,-0.194122 1.699997,-0.393478 2.574005,-0.595154c-8.702011,-2.007462 -19.041,-4.386917 -28.858002,-7.335907c-35.285004,13.192093 -23.451996,31.174454 -12.766006,38.315659c5.244003,3.498245 12.371017,6.570465 19.957016,9.474152c7.218002,2.762466 14.845993,5.37204 21.666992,8.049042c5.177002,2.031311 9.889999,4.100952 13.596008,6.306625c13.089996,7.793884 2.300003,16.535141 -3.110001,18.894821c-3.360001,1.464066 -6.904007,2.777557 -10.486008,4.064941c7.544006,2.708939 15.253006,5.298782 21.811005,8.885376c8.746002,-3.948669 16.653,-8.981293 21.024994,-15.70462c10.082001,-15.508774 -3.5,-23.96582 -21.169998,-30.496185z" stroke="#FFFFFF" stroke-linejoin="bevel" id="svg_15" fill="#64b451"/>
   <path d="m225.479996,147.356262c-4.603989,-1.720947 -9.998001,-3.361664 -16.312988,-4.88501c-3.567001,-0.859589 -7.877014,-1.613983 -12.545013,-2.382324c-22.536987,-3.707489 -53.423996,-7.723587 -49.363998,-25.340935c0.350006,-0.49984 1.340012,-0.697441 1.880005,-0.209236c1.600006,1.453003 6.309998,3.952164 15.270004,3.440712c6.681,-0.383606 19.409988,-5.713203 14.539993,-8.264687c-5.139999,-2.690956 -14.020004,-2.667709 -19.929993,-2.371292c-16.990005,0.854362 -27.650009,9.671181 -26.470001,17.372093c1.563995,10.170433 17.53299,17.329079 35.216003,22.640678c9.816986,2.94902 20.155991,5.328445 28.857986,7.335907c0.875,0.201675 1.736008,0.400452 2.575012,0.595154c29.079987,6.741928 28.919998,20.510574 8.970001,28.595078c-3.492004,1.415802 -7.421005,2.762436 -11.545013,4.104431c7.056,2.295746 14.680008,4.57753 21.666,7.159241c7.584,-2.903091 14.709,-5.975906 19.949005,-9.473572c10.695007,-7.1418 22.529999,-25.124161 -12.757004,-38.316238z" stroke="#ffffff" stroke-linejoin="bevel" id="svg_16" fill="#49a8c0"/>
   <path d="m215.606995,278.995911c-1.883011,-1.114746 -4.328003,-2.44281 -7.027008,-3.90683c-3.751999,-2.03479 -7.994995,-4.335785 -11.957993,-6.720428c-2.786011,-1.677338 -5.434006,-3.392487 -7.654007,-5.08316c-9.300003,-7.073212 -0.25,-11.61824 6.87001,-13.815155c0.258987,-0.080215 0.521988,-0.161606 0.784988,-0.242371c-6.838989,-2.11557 -14.606995,-4.630432 -21.809982,-7.882248c-1.496002,0.817764 -2.936996,1.683762 -4.296005,2.620056c-12.410004,8.54364 -9.169998,18.703629 0,24.207016c5.247009,3.147766 9.880005,5.270905 14.145996,6.91629c4.272003,1.648285 8.177002,2.816467 11.957001,4.050385c3.371002,1.100769 6.645996,2.253906 9.996994,3.848114c13.399994,6.357758 8.990005,11.577515 7.190002,18.51123c11.650009,-6.740753 12.491013,-16.162018 1.800003,-22.502899z" stroke="#FFFFFF" stroke-linejoin="bevel" id="svg_17" fill="#64b451"/>
   <path d="m223.727997,244.547562c-1.358994,-0.93576 -2.800003,-1.802322 -4.29599,-2.620071c-6.558014,-3.586594 -14.267014,-6.176422 -21.811005,-8.885361c-3.584,-1.287399 -7.130005,-2.601486 -10.492996,-4.064926c-5.400009,-2.359695 -16.200012,-11.100952 -3.101013,-18.894852c3.705002,-2.205658 8.419006,-4.274719 13.595001,-6.30661c-6.820999,-2.676437 -14.44899,-5.286606 -21.666992,-8.049042c-17.669006,6.52977 -31.25,14.987427 -21.167007,30.49559c4.372009,6.723343 12.279007,11.756531 21.025009,15.70462c7.201996,3.251831 14.970993,5.766678 21.809998,7.882263c0.261993,0.08078 0.524994,0.162155 0.783997,0.242355c7.119995,2.196335 16.169998,6.741928 6.869995,13.81517c-2.220993,1.690674 -4.867996,3.405823 -7.654999,5.08316c3.963013,2.384644 8.206009,4.685608 11.958008,6.720428c4.264999,-1.644806 8.897995,-3.767914 14.147003,-6.915131c9.169998,-5.503998 12.410995,-15.663925 0.000992,-24.207596z" stroke="#FFFFFF" stroke-linejoin="bevel" id="svg_18" fill="#49a8c0"/>
  </g>
 </g>
</svg>